<svg width="24" height="24" viewBox="0 0 64 62" fill="none" xmlns="http://www.w3.org/2000/svg">
<path fill-rule="evenodd" clip-rule="evenodd" d="M31.62 0C14.15 0 0 14.15 0 31.62C0 45.6119 9.05122 57.4298 21.6202 61.6195C23.2012 61.8962 23.7941 60.9476 23.7941 60.1175C23.7941 59.3666 23.7545 56.8765 23.7545 54.2283C15.81 55.6907 13.7547 52.2916 13.1223 50.513C12.7666 49.6039 11.2251 46.7976 9.88125 46.0466C8.77455 45.4537 7.19355 43.9913 9.84173 43.9518C12.3318 43.9123 14.1104 46.2442 14.7033 47.1928C17.5491 51.9754 22.0945 50.6315 23.9126 49.8015C24.1893 47.7462 25.0193 46.3628 25.9284 45.5723C18.893 44.7818 11.5413 42.0546 11.5413 29.96C11.5413 26.5213 12.7666 23.6755 14.7824 21.4621C14.4662 20.6716 13.3595 17.4305 15.0986 13.0828C15.0986 13.0828 17.7467 12.2528 23.7941 16.3238C26.3237 15.6124 29.0114 15.2566 31.6991 15.2566C34.3868 15.2566 37.0745 15.6124 39.6041 16.3238C45.6514 12.2132 48.2996 13.0828 48.2996 13.0828C50.0387 17.4305 48.932 20.6716 48.6158 21.4621C50.6315 23.6755 51.8568 26.4818 51.8568 29.96C51.8568 42.0941 44.4656 44.7818 37.4302 45.5723C38.5764 46.5605 39.5645 48.4577 39.5645 51.422C39.5645 55.6512 39.525 59.0504 39.525 60.1175C39.525 60.9476 40.1179 61.9357 41.6989 61.6195C47.976 59.5004 53.4306 55.4661 57.2948 50.0846C61.159 44.703 63.2383 38.2452 63.24 31.62C63.24 14.15 49.0901 0 31.62 0Z" fill="black"/>
</svg>
