<svg width="24" height="24" viewBox="0 0 24 24" fill="none" xmlns="http://www.w3.org/2000/svg">
<g clip-path="url(#clip0_4_158322)">
<path d="M16.8503 0H7.14973C3.20735 0 0 3.20735 0 7.14973V16.8503C0 20.7926 3.20735 24 7.14973 24H16.8503C20.7926 24 24 20.7926 24 16.8503V7.14973C24 3.20735 20.7926 0 16.8503 0ZM21.5856 16.8503C21.5856 19.4655 19.4655 21.5856 16.8503 21.5856H7.14973C4.5345 21.5856 2.4144 19.4655 2.4144 16.8503V7.14973C2.4144 4.53446 4.5345 2.4144 7.14973 2.4144H16.8503C19.4655 2.4144 21.5856 4.53446 21.5856 7.14973V16.8503Z" fill="url(#paint0_linear_4_158322)"/>
<path d="M12.0002 5.78906C8.57754 5.78906 5.79297 8.57363 5.79297 11.9963C5.79297 15.4189 8.57754 18.2035 12.0002 18.2035C15.4229 18.2035 18.2075 15.419 18.2075 11.9963C18.2075 8.57359 15.4229 5.78906 12.0002 5.78906ZM12.0002 15.7892C9.90547 15.7892 8.20737 14.0911 8.20737 11.9963C8.20737 9.90156 9.90551 8.20346 12.0002 8.20346C14.095 8.20346 15.7931 9.90156 15.7931 11.9963C15.7931 14.091 14.0949 15.7892 12.0002 15.7892Z" fill="url(#paint1_linear_4_158322)"/>
<path d="M18.2188 7.32625C19.0402 7.32625 19.7061 6.66034 19.7061 5.8389C19.7061 5.01747 19.0402 4.35156 18.2188 4.35156C17.3974 4.35156 16.7314 5.01747 16.7314 5.8389C16.7314 6.66034 17.3974 7.32625 18.2188 7.32625Z" fill="url(#paint2_linear_4_158322)"/>
</g>
<defs>
<linearGradient id="paint0_linear_4_158322" x1="12" y1="23.9301" x2="12" y2="0.186403" gradientUnits="userSpaceOnUse">
<stop stop-color="#E09B3D"/>
<stop offset="0.3" stop-color="#C74C4D"/>
<stop offset="0.6" stop-color="#C21975"/>
<stop offset="1" stop-color="#7024C4"/>
</linearGradient>
<linearGradient id="paint1_linear_4_158322" x1="12.0002" y1="23.9264" x2="12.0002" y2="0.182721" gradientUnits="userSpaceOnUse">
<stop stop-color="#E09B3D"/>
<stop offset="0.3" stop-color="#C74C4D"/>
<stop offset="0.6" stop-color="#C21975"/>
<stop offset="1" stop-color="#7024C4"/>
</linearGradient>
<linearGradient id="paint2_linear_4_158322" x1="18.2188" y1="23.9295" x2="18.2188" y2="0.185873" gradientUnits="userSpaceOnUse">
<stop stop-color="#E09B3D"/>
<stop offset="0.3" stop-color="#C74C4D"/>
<stop offset="0.6" stop-color="#C21975"/>
<stop offset="1" stop-color="#7024C4"/>
</linearGradient>
<clipPath id="clip0_4_158322">
<rect width="24" height="24" fill="white"/>
</clipPath>
</defs>
</svg>
