<svg width="20" height="20" viewBox="0 0 20 20" fill="none" xmlns="http://www.w3.org/2000/svg">
<path d="M2.49984 4.16927L8.9766 9.20676C9.57845 9.67486 10.4212 9.67486 11.0231 9.20676L17.4998 4.16927M4.33317 16.6693H15.6665C16.5999 16.6693 17.0666 16.6693 17.4232 16.4876C17.7368 16.3278 17.9917 16.0729 18.1515 15.7593C18.3332 15.4027 18.3332 14.936 18.3332 14.0026V6.0026C18.3332 5.06918 18.3332 4.60247 18.1515 4.24595C17.9917 3.93235 17.7368 3.67738 17.4232 3.51759C17.0666 3.33594 16.5999 3.33594 15.6665 3.33594H4.33317C3.39975 3.33594 2.93304 3.33594 2.57652 3.51759C2.26292 3.67738 2.00795 3.93235 1.84816 4.24595C1.6665 4.60247 1.6665 5.06918 1.6665 6.0026V14.0026C1.6665 14.936 1.6665 15.4027 1.84816 15.7593C2.00795 16.0729 2.26292 16.3278 2.57652 16.4876C2.93304 16.6693 3.39975 16.6693 4.33317 16.6693Z" stroke="#437EF7" stroke-width="1.67"/>
</svg>
