<?xml version="1.0" encoding="UTF-8"?>
<svg version="1.1" xmlns="http://www.w3.org/2000/svg" width="500" height="500">
<path d="M0 0 C1.56724464 -0.00418152 3.13448624 -0.00966349 4.70172232 -0.01631981 C8.97412032 -0.03068605 13.24632396 -0.02655753 17.51873219 -0.019153 C22.13986621 -0.0144016 26.76095937 -0.02694858 31.38208008 -0.03717041 C40.42218714 -0.05432557 49.46222459 -0.0552052 58.50234369 -0.04995751 C65.85411567 -0.04590824 73.20586716 -0.04736834 80.55763817 -0.05270576 C81.6058945 -0.05345419 82.65415084 -0.05420261 83.73417252 -0.05497371 C85.86404088 -0.05650527 87.99390924 -0.05804361 90.12377759 -0.05958868 C110.07658273 -0.07330199 130.02934861 -0.06788438 149.98215284 -0.05640347 C168.21262752 -0.04647359 186.44300067 -0.05940962 204.67345969 -0.08333766 C223.41860476 -0.10775476 242.1637026 -0.11733003 260.90886325 -0.11068493 C271.42237373 -0.10719835 281.93580617 -0.10938758 292.44930458 -0.12693596 C301.39966755 -0.14169066 310.34989751 -0.14225082 319.30025796 -0.12486505 C323.86128891 -0.11637932 328.4220826 -0.11414574 332.98310089 -0.1295166 C337.16861378 -0.14344664 341.35368802 -0.13849501 345.53917607 -0.11927737 C347.04309866 -0.11554233 348.54705711 -0.11836619 350.05094752 -0.12888902 C370.17594268 -0.25955074 388.37623534 5.14381787 403.11198425 19.25584412 C416.58327291 32.69710933 424.38283732 48.83345433 424.51931798 68.0205493 C424.51262582 69.18749468 424.50593365 70.35444007 424.4990387 71.55674744 C424.50371867 72.82851853 424.50839864 74.10028962 424.51322043 75.41059923 C424.52563856 78.9062918 424.51960251 82.40173579 424.51026177 85.89742875 C424.50343353 89.68073016 424.51397109 93.46399081 424.52220154 97.24728394 C424.53550104 104.64520113 424.53267807 112.04302671 424.52396362 119.44094741 C424.51717253 125.45648883 424.5162765 131.47200467 424.51953506 137.48754883 C424.51999476 138.34559562 424.52045446 139.20364241 424.52092809 140.08769062 C424.52188732 141.83111045 424.52285997 143.57453026 424.52384587 145.31795007 C424.53238868 161.64386455 424.52258306 177.96972839 424.50644477 194.29563457 C424.4930426 208.28646544 424.495371 222.27722162 424.50920105 236.26805115 C424.52527648 252.53785095 424.53156481 268.80760644 424.52236426 285.07741308 C424.52140867 286.81421247 424.52046556 288.55101187 424.51953506 290.28781128 C424.51907224 291.14222117 424.51860941 291.99663107 424.51813256 292.87693217 C424.51554856 298.88122249 424.51990092 304.88548456 424.52697372 310.88977051 C424.53541077 318.21275845 424.53306242 325.53564998 424.51713149 332.85862696 C424.50927832 336.59079199 424.50610634 340.32279662 424.51607895 344.05496025 C424.52674904 348.10964907 424.51395944 352.16393726 424.4990387 356.21861267 C424.50573086 357.38555806 424.51242303 358.55250344 424.51931798 359.75481081 C424.37067518 380.65171619 414.99839742 396.63871635 400.56340027 411.20799255 C399.11808777 412.38768005 399.11808777 412.38768005 397.11808777 412.38768005 C397.61308777 413.23330505 398.10808777 414.07893005 398.61808777 414.95018005 C400.31145997 418.83082468 400.66099894 421.19950819 400.11808777 425.38768005 C397.33199453 428.72773573 394.2157127 430.64731113 390.41886902 432.70799255 C389.2996405 433.32118347 388.18041199 433.93437439 387.02726746 434.56614685 C386.43957581 434.88417267 385.85188416 435.20219849 385.24638367 435.52986145 C382.18681368 437.18588585 379.1394169 438.86404901 376.09074402 440.5400238 C375.48825836 440.87051224 374.88577271 441.20100067 374.26502991 441.54150391 C367.95539983 445.01008186 361.75501282 448.65045003 355.57121277 452.3368988 C354.42050336 453.0210517 353.26946246 453.70464736 352.11808777 454.38768005 C351.49297302 454.76005798 350.86785828 455.13243591 350.22380066 455.51609802 C343.43997589 459.49114085 343.43997589 459.49114085 339.11808777 458.38768005 C333.95009452 452.97289288 330.39285623 445.98313376 326.74308777 439.51268005 C326.19781433 438.56393005 325.65254089 437.61518005 325.09074402 436.63768005 C321.11808777 429.64819462 321.11808777 429.64819462 321.11808777 427.38768005 C320.41108152 427.38919894 319.70407527 427.39071782 318.97564459 427.39228272 C277.03035417 427.48188356 235.0850749 427.55047097 193.13970795 427.59194137 C188.09815862 427.59694393 183.05660947 427.60212124 178.01506042 427.60740662 C176.50960011 427.60898048 176.50960011 427.60898048 174.97372645 427.61058614 C158.74382408 427.62796978 142.51397865 427.65949619 126.28411001 427.69629124 C109.61861342 427.73375752 92.95314655 427.75592791 76.28760958 427.76403403 C66.01219876 427.76951002 55.73694891 427.78677692 45.46158767 427.81934592 C38.40600413 427.84056408 31.35050326 427.84686365 24.29489017 427.84168556 C20.23011291 427.83913509 16.16561603 427.84291824 12.10088921 427.86450195 C-13.00075056 427.99106792 -34.15838689 426.93827463 -53.88191223 409.38768005 C-54.58058411 408.78310974 -55.27925598 408.17853943 -55.99909973 407.5556488 C-66.80896183 397.56599025 -75.27784557 381.69765193 -76.00956273 366.78635448 C-76.01080923 365.85001377 -76.01205573 364.91367307 -76.01334 363.9489584 C-76.01718114 362.86306752 -76.02102229 361.77717664 -76.02497983 360.65837997 C-76.02411335 359.4710447 -76.02324687 358.28370942 -76.02235413 357.06039429 C-76.02532525 355.79460417 -76.02829637 354.52881405 -76.03135753 353.22466666 C-76.03941513 349.71323724 -76.04121641 346.20182827 -76.04195499 342.69039071 C-76.04380775 338.90220539 -76.0513563 335.11403064 -76.05809021 331.32585144 C-76.07166609 323.04254958 -76.07769733 314.75925256 -76.08210087 306.47594142 C-76.08486502 301.30127723 -76.08910274 296.12661491 -76.09360504 290.95195198 C-76.10579763 276.61819418 -76.11609638 262.28443788 -76.11948013 247.95067501 C-76.1196997 247.03344226 -76.11991927 246.11620951 -76.12014548 245.17118183 C-76.12036376 244.25177902 -76.12058204 243.33237621 -76.12080693 242.3851127 C-76.1212504 240.52211757 -76.12169696 238.65912245 -76.12214661 236.79612732 C-76.12236804 235.87202136 -76.12258947 234.9479154 -76.12281761 233.99580622 C-76.12676335 219.03096635 -76.14421059 204.06617523 -76.16750613 189.10135417 C-76.19124323 173.7284473 -76.20368309 158.35556486 -76.20484805 142.98263937 C-76.20576358 134.35491471 -76.21148496 125.72725356 -76.22966766 117.09954643 C-76.24510062 109.7507828 -76.25017038 102.40210229 -76.24192956 95.05332553 C-76.2380341 91.30702355 -76.23889827 87.56088881 -76.25298691 83.81460762 C-76.26815365 79.74423595 -76.25982657 75.67423788 -76.24940491 71.60385132 C-76.25746131 70.43213109 -76.26551772 69.26041087 -76.27381825 68.05318397 C-76.17281189 51.12931134 -70.16265057 36.01427655 -58.88191223 23.38768005 C-58.27734192 22.7018988 -57.67277161 22.01611755 -57.04988098 21.30955505 C-41.81154681 5.04705586 -21.54982497 -0.09458678 0 0 Z M-50.88191223 33.38768005 C-62.08097621 48.36360956 -63.88191223 61.71965669 -63.88191223 80.38768005 C93.19808777 80.38768005 250.27808777 80.38768005 412.11808777 80.38768005 C412.11808777 59.84407104 409.36282591 43.82714809 394.79386902 28.79393005 C381.16559385 16.53843005 366.60367932 13.07997811 348.81726074 13.12025452 C347.25219494 13.11651514 345.68713101 13.11191247 344.12207001 13.10652387 C339.83262321 13.09431392 335.54325452 13.09455197 331.25379431 13.09691262 C326.62309232 13.0973213 321.99241521 13.08627675 317.36172485 13.07679749 C308.29321184 13.06019724 299.22472482 13.05468837 290.15619788 13.05357273 C282.78283084 13.05262174 275.40947235 13.04850891 268.03610802 13.04217148 C247.12096168 13.02456132 226.20583586 13.01533219 205.29068206 13.01683243 C204.16356237 13.01691234 203.03644268 13.01699225 201.87516785 13.01707458 C200.74666828 13.01715635 199.61816872 13.01723811 198.45547219 13.01732235 C180.17092438 13.01813506 161.88645898 12.9990004 143.60193501 12.97079785 C124.81741696 12.94205327 106.03293908 12.92825844 87.24839848 12.9299854 C76.70639928 12.93064879 66.16448646 12.92517922 55.6225071 12.9036293 C46.64595953 12.88539676 37.66953752 12.88108718 28.69297943 12.89464815 C24.11614819 12.90116746 19.53955766 12.90133259 14.96274948 12.88394165 C10.76609914 12.86815977 6.56987934 12.87112638 2.37323918 12.88850991 C0.86181496 12.89156861 -0.64964181 12.8879904 -2.16102763 12.87678976 C-21.45264538 12.74338667 -37.742406 18.95413154 -50.88191223 33.38768005 Z M-63.88191223 93.38768005 C-63.96441223 137.60768005 -64.04691223 181.82768005 -64.13191223 227.38768005 C-64.16832825 241.33791443 -64.20474426 255.2881488 -64.24226379 269.66111755 C-64.25564351 282.19212144 -64.25564351 282.19212144 -64.26368713 294.72312927 C-64.26740594 300.29416202 -64.28203023 305.86503294 -64.30421448 311.4360199 C-64.32980467 317.8719167 -64.34122617 324.30765918 -64.33569203 330.74360716 C-64.33329815 334.03092401 -64.3391825 337.31783003 -64.35877275 340.60509872 C-64.48796615 363.35058021 -62.68114526 381.85073417 -46.25300598 399.13768005 C-36.43391926 408.45529777 -23.82226168 414.51595052 -10.14417553 414.51072788 C-8.41541204 414.51371446 -8.41541204 414.51371446 -6.65172404 414.51676136 C-5.39005721 414.51384852 -4.12839037 414.51093568 -2.82849121 414.50793457 C-1.47124121 414.5083707 -0.11399129 414.50924639 1.24325818 414.51052374 C4.97168841 414.51276042 8.70008993 414.50875869 12.42851651 414.50374568 C16.44959775 414.49942953 20.47067735 414.50088843 24.49176025 414.50164795 C31.45817766 414.50217244 38.4245857 414.4990334 45.39100075 414.49341011 C55.46328277 414.48528505 65.53556026 414.48267886 75.60784521 414.48142212 C91.94923397 414.47923319 108.29061774 414.47257738 124.63200378 414.46311951 C140.50667801 414.4539413 156.38135088 414.44686246 172.25602722 414.44261169 C173.23444815 414.44234897 174.21286909 414.44208625 175.22093914 414.44181556 C180.12936133 414.44051053 185.03778353 414.43924682 189.94620574 414.43800366 C230.67016988 414.42763598 271.39412854 414.41002196 312.11808777 414.38768005 C310.87618156 411.23744531 309.58340449 408.24348868 307.94621277 405.27830505 C307.53161804 404.52726501 307.11702332 403.77622498 306.68986511 403.00242615 C306.25367859 402.22205994 305.81749207 401.44169373 305.36808777 400.63768005 C304.92287781 399.83797791 304.47766785 399.03827576 304.01896667 398.21434021 C300.96026131 392.76813614 297.76865279 387.46285582 294.11808777 382.38768005 C284.8055969 386.84468836 275.88558323 391.75671199 267.02824402 397.0556488 C266.3750116 397.44397888 265.72177917 397.83230896 265.04875183 398.23240662 C263.75777821 399.0049012 262.47322403 399.78822264 261.19523621 400.58201599 C257.80683755 402.63520923 256.31398609 403.39399935 252.24308777 403.26268005 C251.21183777 402.97393005 250.18058777 402.68518005 249.11808777 402.38768005 C247.69791803 399.54734057 247.98882577 397.15636744 247.984375 393.97924805 C247.98210944 393.31403686 247.97984389 392.64882567 247.97750968 391.96345657 C247.97115601 389.72406898 247.97199991 387.4847417 247.9728241 385.24534607 C247.96983347 383.64402691 247.96643116 382.04270847 247.96264648 380.44139099 C247.95379277 376.0840051 247.9514678 371.72663883 247.9508307 367.36924481 C247.94988271 363.73587521 247.9462057 360.10251021 247.9426586 356.46914238 C247.93450893 347.89958682 247.93207485 339.33004177 247.93278503 330.76048279 C247.93338606 321.91045524 247.92283045 313.06048859 247.90704137 304.21047646 C247.89398136 296.62064023 247.88860048 289.03082395 247.88924044 281.44097656 C247.88949587 276.90418766 247.88661999 272.36745287 247.87606239 267.83067513 C247.86640718 263.56503314 247.86628443 259.29949727 247.87357903 255.03385162 C247.87462807 253.46609022 247.87224314 251.8983223 247.86621857 250.33057213 C247.85854058 248.1946204 247.86311524 246.05903903 247.87084961 243.9230957 C247.87030484 242.72644067 247.86976007 241.52978563 247.8691988 240.29686832 C248.11808777 237.38768005 248.11808777 237.38768005 250.11808777 234.38768005 C257.17763741 233.04478025 261.97327482 236.77383711 267.80558777 240.38768005 C269.95699083 241.68221343 272.10937471 242.97511786 274.26261902 244.2665863 C275.94605408 245.28389832 275.94605408 245.28389832 277.66349792 246.32176208 C282.8029336 249.4108784 288.01964421 252.36593349 293.23396301 255.32615662 C296.19512827 257.00783012 299.15266259 258.69586243 302.11027527 260.3837738 C302.69591751 260.71787262 303.28155975 261.05197144 303.88494873 261.39619446 C309.9747329 264.87247282 316.04703801 268.37882222 322.11808777 271.88768005 C331.10349703 277.08008499 340.10453089 282.2443598 349.11808777 287.38768005 C358.60944189 292.80413561 368.089512 298.23965547 377.55558777 303.70018005 C379.19044128 304.64280701 379.19044128 304.64280701 380.85832214 305.60447693 C388.81602536 310.19877153 388.81602536 310.19877153 391.81755066 312.07591248 C393.96628092 313.55279157 393.96628092 313.55279157 396.11808777 313.38768005 C396.97272809 316.72854675 397.43909207 318.6723613 396.00309753 321.87229919 C393.7279247 324.90831859 391.6080424 326.15641446 388.27043152 327.9462738 C387.69909988 328.2579097 387.12776825 328.56954559 386.53912354 328.890625 C384.71761667 329.88110818 382.88725001 330.85362791 381.05558777 331.82518005 C379.25665704 332.79383506 377.45975565 333.76616901 375.66316223 334.739151 C373.91859115 335.68373422 372.17240218 336.62532734 370.42619324 337.56687927 C365.91375579 340.05055149 361.50196686 342.68471879 357.11808777 345.38768005 C361.5842946 353.66379196 366.19498372 361.85194482 370.86808777 370.01268005 C371.21581238 370.620755 371.56353699 371.22882996 371.92179871 371.85533142 C377.57763433 381.74460415 383.29791063 391.59411276 389.11808777 401.38768005 C397.5634999 398.48592307 401.80537654 390.95092092 405.76652527 383.32518005 C410.82199777 372.33756352 412.27235742 362.30791771 412.23834229 350.37158203 C412.2391983 349.27385468 412.24005432 348.17612732 412.24093628 347.0451355 C412.24258957 343.36055369 412.23707087 339.67601747 412.23161316 335.99143982 C412.2313068 333.3072878 412.23139598 330.62313848 412.23197842 327.93898678 C412.23250937 321.47908413 412.22789887 315.01919541 412.22147709 308.55929634 C412.21426946 301.08473114 412.21348192 293.61017429 412.21269226 286.13560486 C412.20744461 266.40712772 412.19348346 246.67865368 412.18058777 226.95018005 C412.15996277 182.87455505 412.13933777 138.79893005 412.11808777 93.38768005 C255.03808777 93.38768005 97.95808777 93.38768005 -63.88191223 93.38768005 Z M260.11808777 251.38768005 C260.11808777 295.93768005 260.11808777 340.48768005 260.11808777 386.38768005 C271.93819569 380.49829057 271.93819569 380.49829057 283.36808777 374.01268005 C293.84781683 367.74702194 293.84781683 367.74702194 300.11808777 368.38768005 C302.02433777 370.31736755 302.02433777 370.31736755 303.61808777 373.26268005 C303.93374695 373.82366394 304.24940613 374.38464783 304.57463074 374.96263123 C305.32542512 376.2980831 306.06517564 377.63977421 306.79679871 378.98582458 C308.90753938 382.82275488 311.12269577 386.59861906 313.32121277 390.38572693 C315.27501993 393.75525005 317.21723218 397.13123785 319.15715027 400.5087738 C322.9520526 407.1083199 326.77867408 413.68894879 330.61808777 420.26268005 C331.443974 421.67674133 331.443974 421.67674133 332.2865448 423.11936951 C333.34739645 424.93515056 334.40842659 426.75082734 335.46965027 428.56639099 C338.35530219 433.50516375 341.23654726 438.4465077 344.11808777 443.38768005 C353.41264207 438.93251377 362.2314146 433.88543884 371.07463074 428.60398865 C374.0986982 426.80400011 377.13906289 425.03301272 380.18058777 423.26268005 C381.14093933 422.70322693 382.10129089 422.1437738 383.09074402 421.56736755 C383.75976746 421.17807068 384.42879089 420.7887738 385.11808777 420.38768005 C383.75335954 416.7550766 382.12007617 413.47806599 380.16886902 410.1259613 C379.57549744 409.10236511 378.98212585 408.07876892 378.37077332 407.02415466 C377.73051208 405.92724304 377.09025085 404.83033142 376.43058777 403.70018005 C375.75942546 402.54486298 375.08861436 401.3893418 374.4181366 400.23362732 C373.02157092 397.82686196 371.62348784 395.4209871 370.22453308 393.01560974 C368.18825302 389.51174467 366.16353406 386.00136424 364.14152527 382.48924255 C363.50311707 381.38056824 362.86470886 380.27189392 362.20695496 379.12962341 C360.94610422 376.9383529 359.68632663 374.74646451 358.42765808 372.55393982 C355.65376185 367.73287271 352.86004732 362.9312738 349.95402527 358.1884613 C349.48069763 357.40994812 349.00737 356.63143494 348.5196991 355.82933044 C347.66122021 354.42430492 346.7921531 353.02566225 345.90983582 351.63548279 C343.49444863 347.67132953 342.55611243 345.00865854 343.11808777 340.38768005 C344.84416199 338.53196716 344.84416199 338.53196716 347.29777527 336.9775238 C348.21139832 336.3921283 349.12502136 335.80673279 350.06632996 335.20359802 C355.40913741 332.02441388 360.79415716 328.9439239 366.24308777 325.95018005 C367.96398621 324.99595154 367.96398621 324.99595154 369.71965027 324.02244568 C372.51643514 322.47256073 375.31589762 320.92776376 378.11808777 319.38768005 C375.62423985 316.5920423 372.86593696 314.95514601 369.61418152 313.12205505 C368.49463074 312.48719177 367.37507996 311.85232849 366.22160339 311.19822693 C364.99959939 310.51137583 363.77759415 309.82452693 362.55558777 309.13768005 C360.64204242 308.05479803 358.7295084 306.97014349 356.81697083 305.88548279 C355.50835673 305.14353465 354.19941353 304.40216671 352.89015198 303.66136169 C346.61113136 300.10752676 340.36258328 296.50179702 334.11808777 292.88768005 C325.09311994 287.67066906 316.04882278 282.48850087 306.99308777 277.32518005 C295.97780861 271.04427525 285.00973 264.68529328 274.06730652 258.27830505 C273.2157196 257.78137146 272.36413269 257.28443787 271.48674011 256.77244568 C269.97882833 255.89088769 268.47362502 255.00466829 266.97209167 254.11228943 C263.76301666 252.06274441 263.76301666 252.06274441 260.11808777 251.38768005 Z " fill="#FCD5CE" transform="translate(75.88191223144531,20.612319946289063)"/>
<path d="M0 0 C1.20129235 -0.00807831 1.20129235 -0.00807831 2.42685324 -0.01631981 C5.08978747 -0.03053936 7.75222037 -0.02351068 10.41517639 -0.01637268 C12.33276771 -0.02207938 14.25035564 -0.0290448 16.16793823 -0.03717041 C21.36216718 -0.0550834 26.55622702 -0.05393695 31.75047755 -0.04822803 C36.09191142 -0.0451336 40.43331293 -0.05123143 44.77474219 -0.05726677 C55.0188467 -0.07130418 65.2628678 -0.06975711 75.50697327 -0.05836487 C86.06459693 -0.04688321 96.62196659 -0.060962 107.17955679 -0.08776134 C116.25496104 -0.10993319 125.33028564 -0.1165524 134.40571505 -0.11068493 C139.82125817 -0.10731787 145.23663846 -0.10971391 150.65215874 -0.12693596 C155.74533699 -0.1424267 160.8381395 -0.13842578 165.93130302 -0.11963081 C167.79648264 -0.11595091 169.66169023 -0.1190359 171.52684402 -0.1295166 C190.95414274 -0.23031772 190.95414274 -0.23031772 198.99745178 6.2822113 C199.52467834 6.91514099 200.05190491 7.54807068 200.59510803 8.20018005 C201.14038147 8.82537537 201.68565491 9.45057068 202.24745178 10.0947113 C205.36269829 15.16022294 205.90953369 20.53624874 205.93226624 26.3735199 C205.93737717 27.03308182 205.9424881 27.69264374 205.94775391 28.37219238 C205.96154099 30.53109566 205.96070133 32.68967575 205.95838928 34.84861755 C205.96228245 36.36405046 205.96661839 37.87948228 205.97137451 39.39491272 C205.97881353 42.56376184 205.97856254 45.73249951 205.97328186 48.90135193 C205.96749302 52.94165775 205.98441506 56.98150427 206.00762653 61.02173424 C206.02243246 64.14978151 206.02322626 67.27771994 206.02011681 70.40579605 C206.02062667 71.89438918 206.02580079 73.38298894 206.03592873 74.8715477 C206.14501443 93.14623985 206.14501443 93.14623985 200.34510803 100.20018005 C193.74873866 105.56931791 189.27078804 107.53602563 180.84729004 107.5415802 C180.04323906 107.54596245 179.23918807 107.55034471 178.41077191 107.55485976 C175.70715959 107.56825112 173.00357988 107.57442744 170.29994202 107.58055115 C168.36500908 107.58845199 166.43007761 107.59672093 164.49514771 107.60533142 C158.13134673 107.63155856 151.76753915 107.64686203 145.40370178 107.66111755 C143.21257587 107.66647738 141.02145 107.67185489 138.83032417 107.67724991 C129.71400618 107.69888167 120.59768997 107.71761727 111.48135281 107.7288723 C98.42062165 107.74510323 85.3601884 107.77825704 72.29956955 107.83527315 C63.11471537 107.87400048 53.92994077 107.89350845 44.7450071 107.89879286 C39.26053786 107.90244311 33.7763863 107.91442964 28.29200554 107.9468956 C23.12828723 107.9770243 17.96507802 107.98327078 12.80129051 107.97151184 C10.91071421 107.97129149 9.02011397 107.9795642 7.1296196 107.99716568 C-11.65255696 108.16245294 -11.65255696 108.16245294 -19.34239197 102.38768005 C-21.59629822 100.0712738 -21.59629822 100.0712738 -22.90489197 97.82518005 C-23.35993103 97.08139099 -23.81497009 96.33760193 -24.28379822 95.5712738 C-26.38736964 91.2321726 -26.47683391 87.34439683 -26.50352478 82.54295349 C-26.50848969 81.86271622 -26.51345459 81.18247894 -26.51856995 80.48162842 C-26.53314404 78.23676022 -26.53998634 75.99196274 -26.54551697 73.74705505 C-26.55127325 72.18009948 -26.55703093 70.61314392 -26.56278992 69.04618835 C-26.57328703 65.76108982 -26.57913782 62.47601565 -26.58262634 59.19090271 C-26.58810198 54.99687037 -26.61211532 50.80316415 -26.6405983 46.60923386 C-26.65929382 43.37143537 -26.66443399 40.13371428 -26.66596222 36.89586639 C-26.66897476 35.35061616 -26.67695566 33.80536684 -26.6901474 32.26016998 C-26.82404406 15.3677647 -26.82404406 15.3677647 -21.79942322 8.1806488 C-21.25672791 7.65084412 -20.71403259 7.12103943 -20.15489197 6.57518005 C-19.36018494 5.76113708 -19.36018494 5.76113708 -18.54942322 4.9306488 C-12.7463447 0.87362931 -6.874469 -0.05635129 0 0 Z M-12.34239197 17.38768005 C-13.76815557 20.23920725 -13.49337759 22.68147075 -13.51939392 25.86936951 C-13.52596512 26.53462646 -13.53253632 27.19988342 -13.53930664 27.88529968 C-13.55904358 30.09052134 -13.57070334 32.29567487 -13.58067322 34.5009613 C-13.58474874 35.25413321 -13.58882427 36.00730511 -13.5930233 36.7833004 C-13.61388627 40.77015789 -13.62818667 44.75698094 -13.63755798 48.74388123 C-13.64861982 52.85989786 -13.6830158 56.97537348 -13.72272968 61.09119892 C-13.74888883 64.25768024 -13.75724918 67.42403255 -13.76083946 70.59061241 C-13.76570771 72.10765929 -13.77732863 73.62470032 -13.79587746 75.14164162 C-13.82025457 77.26746458 -13.81930751 79.39188675 -13.81236267 81.51780701 C-13.81822891 82.72644913 -13.82409515 83.93509125 -13.83013916 85.18035889 C-13.24756746 89.01122572 -12.03077667 90.65118047 -9.34239197 93.38768005 C-6.29361161 94.91207023 -3.11578092 94.53567823 0.22946167 94.53485107 C1.01985185 94.53852776 1.81024203 94.54220445 2.62458342 94.54599255 C5.28769771 94.55705426 7.95077301 94.56087742 10.61390686 94.56468201 C12.51739629 94.57094473 14.42088449 94.57759136 16.32437134 94.58459473 C21.50623729 94.60202113 26.688094 94.61256076 31.869982 94.62080026 C35.10531606 94.62594647 38.34064722 94.63202235 41.57597923 94.63831139 C51.69246524 94.65736723 61.80894392 94.67159806 71.92544442 94.67992336 C83.61477458 94.68970107 95.30391564 94.71603293 106.99317914 94.75642425 C116.0208254 94.78655137 125.04841735 94.80138896 134.07611293 94.80470437 C139.47152027 94.80705857 144.86672569 94.8160671 150.26207924 94.84116554 C155.33707706 94.86439201 160.41173923 94.86870137 165.48677635 94.85840416 C167.35041798 94.85790738 169.21407583 94.8642695 171.07766724 94.87796021 C173.62045115 94.89559672 176.16201968 94.88861422 178.70480347 94.87542725 C179.44371899 94.88639649 180.18263451 94.89736574 180.94394141 94.90866739 C185.78735947 94.84795034 188.25977665 93.83332749 191.65760803 90.38768005 C193.07328639 87.55632334 192.8005508 85.16396822 192.81874084 81.99778748 C192.82370575 81.34228409 192.82867065 80.6867807 192.83378601 80.01141357 C192.84841348 77.83864803 192.85521118 75.66595554 192.86073303 73.4931488 C192.86648479 71.98340859 192.87224252 70.47366839 192.87800598 68.96392822 C192.88851817 65.79552368 192.89435914 62.62714451 192.89784241 59.45872498 C192.90332225 55.40333922 192.92733813 51.34829006 192.95581436 47.29300976 C192.97446189 44.17285186 192.9796475 41.0527746 192.98117828 37.93256569 C192.98420148 36.43786597 192.99221881 34.94316755 193.00536346 33.44852257 C193.02246601 31.35400894 193.02053384 29.26031182 193.01405334 27.16575623 C193.01769897 25.974879 193.0213446 24.78400177 193.02510071 23.55703735 C192.61685667 20.03622918 191.7834835 18.19801917 189.65760803 15.38768005 C185.97992075 12.93588853 183.21861711 13.10251806 178.96549988 13.12025452 C178.17425527 13.1157234 177.38301067 13.11119229 176.56778896 13.10652387 C173.90772843 13.09383031 171.24787134 13.09550342 168.58778381 13.09715271 C166.68414546 13.09117055 164.78050954 13.08436573 162.87687683 13.07679749 C157.69918501 13.05909845 152.52155926 13.05444046 147.34384012 13.05316591 C143.02465325 13.051269 138.70548185 13.04391385 134.38630092 13.03682172 C124.19759457 13.02052531 114.00892357 13.01565391 103.82020569 13.01707458 C93.30294756 13.01827634 82.78589454 12.99717057 72.26868832 12.96558726 C63.24525997 12.93945338 54.22189872 12.92870608 45.1984328 12.9299854 C39.80640578 12.93049589 34.41456096 12.92476496 29.02257156 12.9036293 C23.95164833 12.88429558 18.881082 12.88408909 13.81014633 12.89866257 C11.94812246 12.90075782 10.08607653 12.89600729 8.22409058 12.88394165 C5.68353271 12.86854415 3.14421395 12.87776021 0.60368347 12.89320374 C-0.13454993 12.88291661 -0.87278333 12.87262948 -1.63338745 12.86203063 C-6.47369528 12.92712819 -8.94617491 13.9450622 -12.34239197 17.38768005 Z " fill="#FCD4CE" transform="translate(76.34239196777344,288.61231994628906)"/>
<path d="M0 0 C0.96192261 -0.00511093 1.92384521 -0.01022186 2.91491699 -0.01548767 C6.08022361 -0.02933532 9.2453113 -0.02843046 12.41064453 -0.02612305 C14.62110474 -0.03001273 16.8315642 -0.03434796 19.04202271 -0.03910828 C23.67029241 -0.0465602 28.29848582 -0.04628672 32.92675781 -0.04101562 C38.84356588 -0.0352236 44.76006065 -0.05215078 50.67681694 -0.0753603 C55.24087332 -0.09012702 59.80485477 -0.0909653 64.36893082 -0.08785057 C66.54971054 -0.08836234 68.73049462 -0.09357288 70.91125107 -0.10366249 C73.96707989 -0.11606591 77.02230508 -0.10921152 80.078125 -0.09765625 C81.41570358 -0.10912186 81.41570358 -0.10912186 82.78030396 -0.12081909 C89.82164263 -0.06227715 95.95688689 1.2763479 101.98095703 5.0246582 C107.45576062 10.65588475 109.28601444 16.52892094 109.34545898 24.28125 C109.35203018 24.99060196 109.35860138 25.69995392 109.3653717 26.43080139 C109.38508131 28.77849438 109.3967638 31.12612337 109.40673828 33.47387695 C109.41081381 34.27755014 109.41488934 35.08122334 109.41908836 35.90925026 C109.43994198 40.16540901 109.45424515 44.42153561 109.46362305 48.67773438 C109.47466894 53.06133227 109.50904943 57.44441997 109.54879475 61.82783794 C109.57501802 65.20889694 109.58332006 68.58983559 109.58690453 71.97098732 C109.59175799 73.58603157 109.60333648 75.20107088 109.62194252 76.81601524 C109.80649012 93.8999353 109.80649012 93.8999353 103.42236328 101.2980957 C102.86419922 101.74411133 102.30603516 102.19012695 101.73095703 102.6496582 C101.17537109 103.11114258 100.61978516 103.57262695 100.04736328 104.0480957 C94.5299723 107.64988524 89.4663053 107.56593835 83.07324219 107.54931641 C81.5528257 107.5569828 81.5528257 107.5569828 80.00169373 107.56480408 C76.65357546 107.57869517 73.30566318 107.57774355 69.95751953 107.57543945 C67.62730839 107.57932682 65.29709795 107.58366158 62.96688843 107.58842468 C58.08288272 107.595886 53.19894931 107.59559636 48.31494141 107.59033203 C42.06158442 107.58453953 35.80852383 107.60146378 29.55521584 107.6246767 C24.74246495 107.63942171 19.92978531 107.64028465 15.11701584 107.63716698 C12.8117756 107.63767986 10.50653133 107.64291149 8.20131302 107.6529789 C4.97483419 107.66533963 1.74893082 107.65855321 -1.47753906 107.64697266 C-2.90074715 107.65843826 -2.90074715 107.65843826 -4.35270691 107.6701355 C-12.15884639 107.60832745 -18.06947106 105.88099844 -23.83154297 100.2746582 C-27.95745605 94.32889793 -28.95125989 89.57589704 -29.00854492 82.44580078 C-29.01511612 81.7671698 -29.02168732 81.08853882 -29.02845764 80.38934326 C-29.04812401 78.14929071 -29.05983987 75.90930508 -29.06982422 73.66918945 C-29.07389975 72.90077917 -29.07797527 72.13236889 -29.0821743 71.34067345 C-29.10300924 67.27138923 -29.11732062 63.20213845 -29.12670898 59.1328125 C-29.13775271 54.9477484 -29.17213594 50.76321901 -29.21188068 46.57834339 C-29.23813572 43.3447934 -29.24640877 40.11136897 -29.24999046 36.87772179 C-29.25483552 35.33607063 -29.26638963 33.79442429 -29.28502846 32.25287819 C-29.39342396 22.69171989 -29.16529812 14.62706921 -22.93701172 6.93481445 C-22.30408203 6.40758789 -21.67115234 5.88036133 -21.01904297 5.3371582 C-20.39384766 4.79188477 -19.76865234 4.24661133 -19.12451172 3.68481445 C-13.1196784 -0.00810689 -6.83796118 -0.01891169 0 0 Z M-14.83154297 17.2746582 C-16.25451407 20.1206004 -15.99040533 22.55857129 -16.02441406 25.74047852 C-16.03259155 26.40412918 -16.04076904 27.06777985 -16.04919434 27.75154114 C-16.07404332 29.95194599 -16.09056473 32.15228626 -16.10498047 34.3527832 C-16.11030415 35.10470695 -16.11562782 35.85663071 -16.12111282 36.63134003 C-16.14784488 40.61285889 -16.16721776 44.59434643 -16.18164062 48.57592773 C-16.19827051 52.68300347 -16.24303292 56.78927395 -16.29401207 60.89604568 C-16.32771897 64.05827727 -16.33922182 67.22031874 -16.34486771 70.38271332 C-16.35157296 71.8961679 -16.3667764 73.40961029 -16.39075851 74.92288971 C-16.42248479 77.04634022 -16.42243729 79.16763315 -16.41503906 81.29125977 C-16.42312592 82.49768127 -16.43121277 83.70410278 -16.43954468 84.94708252 C-15.81759553 88.35099212 -14.92358257 90.58634658 -12.52861977 93.13373375 C-9.02925157 95.48631717 -5.05964425 95.09545993 -0.97998047 95.03515625 C0.0075824 95.04406387 0.99514526 95.0529715 2.01263428 95.06214905 C5.27358272 95.08344072 8.53255699 95.06111906 11.79345703 95.03637695 C14.06119997 95.03787926 16.32894239 95.04130899 18.59667969 95.04658508 C23.34808189 95.05091766 28.09880566 95.03406909 32.85009766 95.00195312 C38.94028084 94.96217261 45.02919176 94.97147108 51.11941528 94.99618816 C55.8017825 95.0103709 60.48385255 95.00028461 65.16619873 94.98267555 C67.41167491 94.97682553 69.65718149 94.97812839 71.90264893 94.98670006 C75.04141819 94.99469135 78.17832345 94.97045016 81.31689453 94.9375 C82.70881012 94.95032516 82.70881012 94.95032516 84.12884521 94.96340942 C88.45501096 94.88502287 90.595969 94.66637848 94.24275208 92.1710968 C96.61494636 88.60309691 96.80712899 86.5370283 96.83129883 82.26879883 C96.84166672 81.58359665 96.85203461 80.89839447 96.86271667 80.19242859 C96.88971862 77.93797103 96.88014248 75.68546812 96.86767578 73.4309082 C96.87358715 71.85818949 96.8808349 70.28547528 96.88935852 68.71276855 C96.90122676 65.42082223 96.89455145 62.12955254 96.87524414 58.83764648 C96.85235052 54.6236948 96.87914496 50.4117586 96.92030621 46.19800568 C96.94590849 42.95162307 96.94329818 39.70572129 96.9324131 36.45927429 C96.9309285 34.9059618 96.93859251 33.35261209 96.95566368 31.7993927 C96.97568298 29.62519871 96.95721748 27.45454939 96.92895508 25.28051758 C96.92631905 23.42783264 96.92631905 23.42783264 96.92362976 21.53771973 C96.10696633 18.00896011 95.03466137 16.31543056 92.07836819 14.18355751 C88.31842922 12.39425652 84.47983098 12.59071442 80.38696289 12.64355469 C79.41876114 12.63639938 78.45055939 12.62924408 77.45301819 12.62187195 C74.26262789 12.60500611 71.07364679 12.62437448 67.88330078 12.64575195 C65.66182845 12.64492313 63.44035618 12.64246326 61.21888733 12.63844299 C56.56769305 12.63558651 51.91698073 12.65027337 47.26586914 12.67773438 C41.30476759 12.7118362 35.34452665 12.70579062 29.38338375 12.6870718 C24.79798715 12.6765031 20.21279078 12.68543823 15.6274128 12.70045662 C13.42938392 12.70563847 11.23133414 12.70515661 9.03330803 12.69891167 C5.96193338 12.69346043 2.89179088 12.71383192 -0.17944336 12.74121094 C-1.08711456 12.73468506 -1.99478577 12.72815918 -2.92996216 12.72143555 C-8.15336275 12.80059649 -11.07907272 13.26857672 -14.83154297 17.2746582 Z " fill="#FCD5CE" transform="translate(78.83154296875,145.725341796875)"/>
<path d="M0 0 C0.78463749 -0.00467997 1.56927498 -0.00935994 2.37768936 -0.01418173 C5.00945133 -0.02615714 7.64069501 -0.01666469 10.27246094 -0.00723267 C12.15816553 -0.01129724 14.04386774 -0.01663848 15.92956543 -0.02316284 C21.05345991 -0.03685582 26.17717346 -0.03152959 31.30107117 -0.02202559 C36.65905247 -0.01443927 42.0170181 -0.02147174 47.375 -0.02618408 C56.37340074 -0.03164463 65.37172765 -0.02444216 74.37011719 -0.01016235 C84.77889548 0.00616471 95.18749749 0.00087642 105.59627151 -0.01564157 C114.52714168 -0.0292479 123.45795873 -0.03118027 132.38883591 -0.02332556 C137.72543986 -0.01864436 143.06196091 -0.01803649 148.39855957 -0.02793503 C153.41529101 -0.03658999 158.43179479 -0.03060967 163.44850159 -0.01325226 C165.29158652 -0.00927955 167.13469056 -0.01043482 168.97776794 -0.01704025 C171.48999611 -0.02521493 174.00149069 -0.01498391 176.51367188 0 C177.2463541 -0.00669217 177.97903633 -0.01338433 178.73392105 -0.02027929 C181.80696947 0.01537379 183.9785076 0.23309029 186.71343994 1.68601036 C188.25683594 3.38095093 188.25683594 3.38095093 188.69433594 6.88095093 C188.25683594 10.38095093 188.25683594 10.38095093 187.21109009 12.07589149 C184.18601424 14.09605032 181.06706128 13.79352335 177.55126953 13.76190186 C176.7586138 13.76658183 175.96595806 13.7712618 175.14928246 13.77608359 C172.48444424 13.78808122 169.82011577 13.77855791 167.15527344 13.76913452 C165.24838968 13.77319811 163.34150827 13.77853879 161.43463135 13.7850647 C156.24876408 13.79876942 151.06307538 13.79342663 145.8772049 13.78392744 C140.45735686 13.77634717 135.0375244 13.7833719 129.61767578 13.78808594 C120.51494595 13.79354826 111.41228907 13.78633938 102.30957031 13.77206421 C91.77639355 13.75573681 81.24339097 13.76102498 70.71021843 13.77754343 C61.67662499 13.79114472 52.64308408 13.7930846 43.60948372 13.78522742 C38.20973987 13.78054343 32.81007798 13.77994594 27.41033936 13.78983688 C22.33452933 13.79848454 17.2589445 13.79252499 12.18315887 13.77515411 C10.3170789 13.77117748 8.45098007 13.77234332 6.58490753 13.77894211 C4.04381407 13.78710138 1.50344899 13.77690462 -1.03759766 13.76190186 C-1.78165674 13.76859402 -2.52571583 13.77528619 -3.29232216 13.78218114 C-6.19424155 13.74879041 -8.24483706 13.71373587 -10.69741821 12.07589149 C-12.49976374 9.15465728 -12.1575766 6.69625122 -11.74316406 3.38095093 C-8.41516815 -0.2738177 -4.62907571 -0.042281 0 0 Z " fill="#FCD5CD" transform="translate(246.7431640625,212.61904907226563)"/>
<path d="M0 0 C0.78463749 -0.00467997 1.56927498 -0.00935994 2.37768936 -0.01418173 C5.00945133 -0.02615714 7.64069501 -0.01666469 10.27246094 -0.00723267 C12.15816553 -0.01129724 14.04386774 -0.01663848 15.92956543 -0.02316284 C21.05345991 -0.03685582 26.17717346 -0.03152959 31.30107117 -0.02202559 C36.65905247 -0.01443927 42.0170181 -0.02147174 47.375 -0.02618408 C56.37340074 -0.03164463 65.37172765 -0.02444216 74.37011719 -0.01016235 C84.77889548 0.00616471 95.18749749 0.00087642 105.59627151 -0.01564157 C114.52714168 -0.0292479 123.45795873 -0.03118027 132.38883591 -0.02332556 C137.72543986 -0.01864436 143.06196091 -0.01803649 148.39855957 -0.02793503 C153.41529101 -0.03658999 158.43179479 -0.03060967 163.44850159 -0.01325226 C165.29158652 -0.00927955 167.13469056 -0.01043482 168.97776794 -0.01704025 C171.48999611 -0.02521493 174.00149069 -0.01498391 176.51367188 0 C177.2463541 -0.00669217 177.97903633 -0.01338433 178.73392105 -0.02027929 C181.80581329 0.01536037 183.97648428 0.23177822 186.70953369 1.68601036 C188.25683594 3.38095093 188.25683594 3.38095093 188.75683594 6.88095093 C188.25683594 10.38095093 188.25683594 10.38095093 186.70953369 12.07589149 C183.33746668 13.87013942 180.24008607 13.79593814 176.51367188 13.76190186 C175.72903439 13.76658183 174.9443969 13.7712618 174.13598251 13.77608359 C171.50422055 13.78805899 168.87297686 13.77856655 166.24121094 13.76913452 C164.35550634 13.7731991 162.46980413 13.77854033 160.58410645 13.7850647 C155.46021196 13.79875768 150.33649841 13.79343145 145.21260071 13.78392744 C139.85461941 13.77634112 134.49665377 13.78337359 129.13867188 13.78808594 C120.14027114 13.79354648 111.14194422 13.78634401 102.14355469 13.77206421 C91.73477639 13.75573715 81.32617438 13.76102544 70.91740036 13.77754343 C61.98653019 13.79114976 53.05571315 13.79308213 44.12483597 13.78522742 C38.78823201 13.78054621 33.45171096 13.77993835 28.1151123 13.78983688 C23.09838087 13.79849184 18.08187709 13.79251153 13.06517029 13.77515411 C11.22208535 13.77118141 9.37898131 13.77233668 7.53590393 13.77894211 C5.02367577 13.78711679 2.51218118 13.77688577 0 13.76190186 C-0.73268223 13.76859402 -1.46536446 13.77528619 -2.22024918 13.78218114 C-5.29214141 13.74654148 -7.4628124 13.53012364 -10.19586182 12.07589149 C-11.74316406 10.38095093 -11.74316406 10.38095093 -12.24316406 6.88095093 C-11.74316406 3.38095093 -11.74316406 3.38095093 -10.19586182 1.68601036 C-6.8237948 -0.10823757 -3.7264142 -0.03403628 0 0 Z " fill="#FCD5CE" transform="translate(246.7431640625,163.61904907226563)"/>
<path d="M0 0 C1.37333496 -0.01062721 1.37333496 -0.01062721 2.77441406 -0.02146912 C4.28540428 -0.01775299 4.28540428 -0.01775299 5.82691956 -0.01396179 C6.88553192 -0.01907272 7.94414429 -0.02418365 9.03483582 -0.02944946 C12.54835093 -0.0433957 16.061671 -0.0423849 19.57521057 -0.04008484 C22.00897292 -0.043969 24.44273458 -0.04830308 26.87649536 -0.05307007 C31.98352758 -0.06054312 37.09049068 -0.06023314 42.19752502 -0.05497742 C48.75290683 -0.04918141 55.30800624 -0.06611196 61.86334133 -0.08932209 C66.89125227 -0.10403014 71.91909475 -0.10493512 76.94702339 -0.10181236 C79.36442181 -0.10232705 81.78182392 -0.10759224 84.19920158 -0.11762428 C87.57529603 -0.1299145 90.95083449 -0.12324136 94.32691956 -0.11161804 C95.33222214 -0.11926178 96.33752472 -0.12690552 97.37329102 -0.13478088 C98.29166748 -0.12776657 99.21004395 -0.12075226 100.15625 -0.11352539 C100.95469047 -0.11369313 101.75313093 -0.11386087 102.57576656 -0.1140337 C105.18432051 0.35913889 106.06877066 1.15516472 107.64161682 3.26069641 C108.28418387 8.40123278 108.28418387 8.40123278 106.39809418 10.92396641 C104.16941768 12.6200536 102.94646581 12.63989167 100.16297913 12.64837646 C99.24604782 12.6582811 98.32911652 12.66818573 97.38439941 12.6783905 C96.38066788 12.67388885 95.37693634 12.66938721 94.3427887 12.66474915 C93.2840303 12.6716124 92.22527191 12.67847565 91.13442993 12.68554688 C87.62627342 12.70388454 84.11856109 12.69996766 80.61036682 12.69429016 C78.17803297 12.69884831 75.74570042 12.70415278 73.31336975 12.71017456 C68.21228304 12.71911916 63.11135278 12.71666676 58.01026917 12.70674133 C51.46266964 12.69524486 44.91560886 12.71546732 38.36808014 12.74465847 C33.34444226 12.7629742 28.3209346 12.76273732 23.29727173 12.75702095 C20.88266239 12.7568672 18.46804452 12.76295583 16.0534668 12.77531242 C12.6821121 12.79013444 9.31176731 12.7796097 5.94044495 12.7624054 C4.93671341 12.77207336 3.93298187 12.78174133 2.89883423 12.79170227 C1.98190292 12.78186813 1.06497162 12.772034 0.12025452 12.76190186 C-0.67688713 12.76169257 -1.47402878 12.76148329 -2.29532623 12.76126766 C-4.35838318 12.26069641 -4.35838318 12.26069641 -6.15001678 10.42468357 C-7.85380275 7.37348074 -7.28869166 5.55255719 -6.35838318 2.26069641 C-3.92654741 -0.17113936 -3.33035442 0.00856672 0 0 Z " fill="#FCD5CE" transform="translate(86.35838317871094,61.73930358886719)"/>
<path d="M0 0 C2.430466 2.430466 2.76271993 3.5989856 3 7 C2 9.8125 2 9.8125 0 12 C-3.50689795 12.50098542 -5.82393204 12.68287817 -8.9375 10.875 C-10.50422245 8.11019567 -10.38976435 6.11811483 -10 3 C-7.71933282 -1.02470679 -4.21240995 -0.38294636 0 0 Z " fill="#FCD6CE" transform="translate(63,62)"/>
</svg>
