<svg width="20" height="20" viewBox="0 0 20 20" fill="none" xmlns="http://www.w3.org/2000/svg">
<path d="M7.48371 8.1319C8.01366 9.23568 8.73609 10.2702 9.65101 11.1851C10.5659 12.1 11.6004 12.8224 12.7042 13.3524C12.7991 13.398 12.8466 13.4208 12.9067 13.4383C13.1202 13.5005 13.3823 13.4558 13.5631 13.3264C13.6139 13.2899 13.6575 13.2464 13.7445 13.1594C14.0107 12.8932 14.1438 12.7601 14.2776 12.673C14.7824 12.3449 15.4331 12.3449 15.9378 12.673C16.0717 12.7601 16.2048 12.8932 16.471 13.1594L16.6193 13.3077C17.024 13.7124 17.2263 13.9147 17.3362 14.132C17.5548 14.5642 17.5548 15.0745 17.3362 15.5067C17.2263 15.724 17.024 15.9263 16.6193 16.331L16.4993 16.451C16.096 16.8543 15.8944 17.0559 15.6203 17.2099C15.3161 17.3808 14.8436 17.5036 14.4947 17.5026C14.1803 17.5017 13.9654 17.4407 13.5356 17.3187C11.2259 16.6631 9.04643 15.4262 7.22817 13.6079C5.4099 11.7897 4.17298 9.61019 3.51742 7.30049C3.39543 6.8707 3.33444 6.65581 3.3335 6.34138C3.33246 5.99248 3.45533 5.52002 3.62621 5.21583C3.78021 4.94169 3.98184 4.74006 4.38511 4.33679L4.50514 4.21676C4.90979 3.81211 5.11212 3.60978 5.32941 3.49987C5.76157 3.28129 6.27192 3.28129 6.70408 3.49987C6.92138 3.60978 7.1237 3.81211 7.52836 4.21676L7.67673 4.36514C7.94293 4.63134 8.07603 4.76444 8.16305 4.89828C8.49122 5.40302 8.49122 6.05372 8.16305 6.55846C8.07603 6.69231 7.94293 6.82541 7.67674 7.0916C7.5897 7.17864 7.54618 7.22216 7.50975 7.27304C7.3803 7.45382 7.3356 7.71595 7.39783 7.92942C7.41534 7.98949 7.43813 8.03696 7.48371 8.1319Z" stroke="#437EF7" stroke-width="1.67" stroke-linecap="round" stroke-linejoin="round"/>
</svg>
